<svg  cursor= 'pointer' width="20" height="20" viewBox="0 0 20 20" fill="none" xmlns="http://www.w3.org/2000/svg">
<path fill-rule="evenodd" clip-rule="evenodd" d="M8.05213 16.1042C12.4992 16.1042 16.1043 12.4992 16.1043 8.05212C16.1043 3.60506 12.4992 0 8.05213 0C3.60506 0 0 3.60506 0 8.05212C0 12.4992 3.60506 16.1042 8.05213 16.1042ZM8.05213 13.6267C11.1309 13.6267 13.6267 11.1309 13.6267 8.05212C13.6267 4.97339 11.1309 2.47758 8.05213 2.47758C4.97339 2.47758 2.47758 4.97339 2.47758 8.05212C2.47758 11.1309 4.97339 13.6267 8.05213 13.6267Z" fill="current"/>
<path d="M15.0225 17.6504C14.3487 16.9766 14.3487 15.8842 15.0225 15.2104L15.2104 15.0225C15.8842 14.3487 16.9766 14.3487 17.6504 15.0225L19.4947 16.8668C20.1684 17.5406 20.1684 18.633 19.4947 19.3068L19.3068 19.4947C18.633 20.1684 17.5406 20.1684 16.8668 19.4947L15.0225 17.6504Z" fill="current"/>
</svg>
